<svg preserveAspectRatio="xMidYMid meet" data-bbox="36 39 128 122.001" viewBox="36 39 128 122.001" height="200" width="200" xmlns="http://www.w3.org/2000/svg" data-type="color" role="presentation" aria-hidden="true" aria-labelledby="svgcid-kuwymk-k7sj21" style="user-select: auto;"><title id="svgcid-kuwymk-k7sj21" style="user-select: auto;"></title>
    <g style="user-select: auto;">
        <path d="M81.555 127.261c-2.352-4.338.304-18.779.757-24.46l-9.239-9.744-3.763-.11-6.42-1.214-7.97 5.519-3.888 6.004c-.309 14.694-1.791 14.8.317 24.717 2.108 9.917 6.281 26.172 6.281 26.172l3.234 2.914 3.183-3.263s-1.99-24.9-1.058-30.225c.422-2.408 1.801-6.842 3.186-10.982 1.355 4.608 2.856 9.901 3.702 13.504 1.799 7.663 14.976 26.158 14.976 26.158l3.507 1.696 1.75-3.453c-.001-.002-6.203-18.895-8.555-23.233z" fill="#37A0C5" data-color="1" style="user-select: auto;"></path>
        <path fill="#FCB632" d="M162.351 52.158l-1.841.027-7.749.112 3.263 9.402 1.766 1.595 1.517-1.437 3.044-9.699z" data-color="2" style="user-select: auto;"></path>
        <path fill="#FCB632" d="M40.819 62.44l-3.023-8.711 9.59-.139-2.648 8.417-2.339 1.886-1.58-1.453z" data-color="2" style="user-select: auto;"></path>
        <path d="M128.154 150.448l-5.401 1.113c-3.099 1.934-8.805 8.197-2.243 8.057 6.562-.139 14.302-4.526 7.644-9.17z" fill="#FCB632" data-color="2" style="user-select: auto;"></path>
        <path d="M139.873 149.06s-6.788 3.904-5.279 6.852c1.509 2.948 8.792-.28 11.222-1.191 2.43-.911.452-5.269-.102-6.985l-5.841 1.324z" fill="#FCB632" data-color="2" style="user-select: auto;"></path>
        <path d="M57.63 154.144c-3.187 1.029-8.551 3.033-5.821 5.32 2.73 2.287 12.98 1.601 14.892-.216 1.094-1.04-2.655-5.453-2.655-5.453l-6.416.349z" fill="#EC645D" data-color="3" style="user-select: auto;"></path>
        <path d="M90.109 150.492l-5.257 1.758s-3.675 4.802-2.935 7.8c.74 2.998 6.352-1.804 9.553-4.609 3.201-2.805-.115-5.366-1.361-4.949z" fill="#EC645D" data-color="3" style="user-select: auto;"></path>
        <path d="M162.613 50.136a4.445 4.445 0 0 0 .293-1.631 4.484 4.484 0 0 0-4.555-4.412l-1.701.025a4.483 4.483 0 0 0-4.424 4.543 4.42 4.42 0 0 0 .341 1.622 1.427 1.427 0 0 0-1.345 1.438 1.434 1.434 0 0 0 1.457 1.411l4.102-.059 1.701-.025 2.104-.031 1.841-.027.158-.002A1.434 1.434 0 0 0 164 51.535a1.427 1.427 0 0 0-1.387-1.399z" fill="#EC645D" data-color="3" style="user-select: auto;"></path>
        <path d="M130.186 106.651c-7.006.35-15.078-1.591-19.188-2.749l-1.78 4.059c3.944 1.147 12.184 3.224 19.861 3.112.443-.007.885-.02 1.324-.042 7.046-.347 13.877-3.029 17.903-4.924l-1.94-3.946c-3.697 1.728-9.946 4.183-16.18 4.49z" fill="#EC645D" data-color="3" style="user-select: auto;"></path>
        <path d="M43.429 59.287c-.828-.022-1.729 1.203-2.61 3.153-.612 1.356-1.215 3.054-1.776 4.972.587.205.279 5.809 1.045 5.887.507.051 1.522-2.61 2.103-2.649.061-.004.643-2.781.704-2.786.455-.039.926-.101 1.423-.212.294-2.124.485-4.126.42-5.645-.07-1.627-.435-2.697-1.309-2.72z" fill="#EC645D" data-color="3" style="user-select: auto;"></path>
        <path d="M74.59 49.014l-.063-4.327-5.371-3.33-.288-.179-4.096-.111-2.989 1.987-1.107 2.649-.221 3.422 1.328 2.318 1.26 3.392.074 5.097 3.758 6.412 2.486-5.91-.081-5.566c3.009-.272 5.354-2.791 5.31-5.854z" fill="#EC645D" data-color="3" style="user-select: auto;"></path>
        <path d="M63.043 54.835c.459.098.957.155 1.514.147l-.035-2.375-.019-1.325c-.046-3.14 2.149-4.492 5.237-5.108 1.575-.314 3.279-.787 4.786-1.488 2.319-1.078 4.171-2.7 4.345-5.148 0 0-5.318.808-10.237.149-4.919-.659-10.126 1.332-10.04 7.201.046 3.096.694 7.15 4.449 7.947z" fill="#195069" data-color="4" style="user-select: auto;"></path>
        <path d="M37.638 54.083l4.103-.06 1.7-.025 4.103-.06a1.434 1.434 0 0 0 1.415-1.453 1.426 1.426 0 0 0-1.386-1.398 4.424 4.424 0 0 0 .293-1.631 4.484 4.484 0 0 0-4.555-4.412l-1.701.025a4.484 4.484 0 0 0-4.425 4.543 4.42 4.42 0 0 0 .341 1.622 1.427 1.427 0 0 0-1.345 1.438 1.434 1.434 0 0 0 1.457 1.411z" fill="#1EBA9A" data-color="5" style="user-select: auto;"></path>
        <path d="M159.845 60.122c-.482-1.775-2.031-1.52-3.821 1.577-.867 1.5-1.787 3.646-2.67 6.579-2.948 9.802-9.285 7.507-15.001.159l-1.739-3.01-2.333-5.266c1.376-1.919 2.267-4.935 2.267-8.338 0-3.888-1.161-7.275-2.883-9.09v-.773l-3.566-1.437s-2.2.076-2.428.151c-.228.076-4.248.681-4.248.681l-2.276 3.48s.473 1.223.927 2.412l-1.581.772.026 1.789c.038 2.64 1.844 4.817 4.269 5.496l.084 5.746-.28 3.678-4.659 1.028c-5.79 6.845-15.606 21.336-18.854 29.015a20.215 20.215 0 0 0-1.016-3.125c-.613.709-4.582-4.141-5.848-3.447-.84.46 1.226 6.539.047 6.811 2.036 3.332 4.177 5.581 5.611 5.927.213 2.033 1.969-.479 7.427-7.01 3.538-4.233 7.573-8.887 10.691-12.446l.632-4.941 2.633 1.05.263 4.55 1.492 6.038-.878 12.426-11.137 3.296.343 2.83-2.123 1.229 9.319 4.407c-.374 1.144-.663 2.05-.802 2.448l-.035.662a92.632 92.632 0 0 0 2.317 26.039c.953 4.07 1.961 7.987 2.738 10.044l5.401-1.113-1.614-17.982c-.379-4.217-.361-10.823.646-16.286l.465-.173-.387-.229c.168-.862.363-1.689.585-2.473l2.769.045c-.121 1.064-.24 2.128-.437 2.5l-.149.148-.015.001c.495 6.731 7.093 25.093 9.855 33.061l5.841-1.323s-4.986-21.036-6.441-32.917l.082-.118-.134-.301c-.046-.392-.087-.77-.125-1.139l4.801-3.467 4.409-3.687-1.6-1.388-.339-2.557-14.052-11.357 2.896-13.651 4.143 1.613c15.883 11.532 20.176-11.318 20.618-16.5.076-.891.02-1.604-.126-2.144z" fill="#EC645D" data-color="3" style="user-select: auto;"></path>
        <path d="M148.306 106.107c-4.026 1.894-10.858 4.577-17.903 4.924a36.29 36.29 0 0 1-1.324.042c-7.677.111-15.917-1.965-19.861-3.112l-1.657 3.778s4.113 1.81 10.173 3.078c.51.107 1.029.211 1.566.308 2.545.463 5.374.803 8.348.879.785.02 1.582.014 2.385-.006a46.172 46.172 0 0 0 1.732-.071c2.5-.161 5.053-.54 7.59-1.224 3.667-.99 7.297-2.607 10.667-5.103l-1.716-3.493z" fill="#F392B4" data-color="6" style="user-select: auto;"></path>
        <path d="M138.254 70.324c.732 2.772 1.025 5.761 1.1 8.443.129 4.638-.386 8.344-.386 8.344l7.399 15.05c-3.697 1.728-9.946 4.182-16.181 4.49-7.006.35-15.078-1.591-19.188-2.749l7.319-16.69a185.47 185.47 0 0 1-.325-5.73c-.209-5.584.003-11.594 1.941-15.726 1.059-2.257 2.636-3.948 4.939-4.706 1.063-.35 2.275-.508 3.67-.421.762.048 2.129.368 2.131.368l7.581 9.327z" fill="#F392B4" data-color="6" style="user-select: auto;"></path>
        <path d="M72.504 61.842l.044.139a12.297 12.297 0 0 0-3.188-1.546c-1.828-.581-3.891-.79-6.243-.503-1.932.236-3.585 1.465-4.994 3.444v-.001a1.26 1.26 0 0 0-.033.044l-.017.023C53.013 70.386 44.629 79.916 43 79.752c-.916-.092.54-6.485 1.318-12.102-.497.111-.968.173-1.423.212-.061.005-.126.016-.187.02a9.168 9.168 0 0 1-3.665-.472c-2.381 8.151-4.002 19.935-2.404 23.087 1.618 3.19 9.91-2.654 15.624-7.232-.809 6.328-1.182 13.283-1.232 19.989l12.273-.178 19.006-.276s1.3-13.362-1.235-25.19c4.027 4.188 9.34 10.186 11.863 15.064a36.84 36.84 0 0 0 1.323 2.336c2.955-.682 4.78-2.185 5.8-3.364-4.044-9.793-20.896-25.463-27.557-29.804z" fill="#195069" data-color="4" style="user-select: auto;"></path>
        <path d="M136.111 43.582c-1.026-2.461-4.806-4.611-7.088-4.582-8.661.111-8.587 5.182-8.531 9.019l5.886-2.876c1.143 3.101 2.08 5.865 2.818 8.571.163.597.302 1.191.445 1.785.434 1.8.777 3.616 1.03 5.498v.001c.298 2.208.481 4.527.531 7.094.003.125.012.237.013.363l.029 2.004.049 3.362 2.28-.033 4.432-.064s.123-1.302.247-3.4c.034-.572.068-1.207.099-1.886.317-6.813.396-18.533-2.24-24.856z" fill="#195069" data-color="4" style="user-select: auto;"></path>
    </g>
</svg>